<svg xmlns="http://www.w3.org/2000/svg" viewBox="0 0 320 320" role="img" aria-labelledby="t d"><title id="t">判断材料8項目</title><desc id="d">判断材料8項目の概念図。</desc><defs><radialGradient id="bg"><stop offset="0" stop-color="#0d5a73" stop-opacity=".5"/><stop offset="1" stop-color="#020d15" stop-opacity=".1"/></radialGradient><linearGradient id="g" x1="0" y1="0" x2="1" y2="1"><stop stop-color="#b5ffff"/><stop offset=".45" stop-color="#36ddf5"/><stop offset=".82" stop-color="#0c8db5"/><stop offset="1" stop-color="#f1a158"/></linearGradient><filter id="gl" x="-80%" y="-80%" width="260%" height="260%"><feGaussianBlur stdDeviation="5" result="b"/><feMerge><feMergeNode in="b"/><feMergeNode in="SourceGraphic"/></feMerge></filter></defs><rect width="320" height="320" rx="42" fill="url(#bg)"/><circle cx="160" cy="160" r="108.8" fill="none" stroke="#33dff5" stroke-opacity=".16" stroke-width="1.5"/><g fill="none" stroke="url(#g)" stroke-linecap="round" stroke-linejoin="round" filter="url(#gl)"><path d="M160 48 L239 81 L272 160 L239 239 L160 272 L81 239 L48 160 L81 81 Z" stroke-width="4"/><path d="M160 48 V272 M48 160 H272 M81 81 L239 239 M239 81 L81 239" stroke-width="2" opacity=".65"/><path d="M160 88 L216 112 L232 174 L196 223 L132 216 L93 171 L112 112 Z" stroke-width="4" fill="#0d6c86" fill-opacity=".24"/><circle cx="160" cy="160" r="8" fill="#f2a158" stroke="none"/></g></svg>