<svg xmlns="http://www.w3.org/2000/svg" viewBox="0 0 180 160" role="img" aria-labelledby="title desc">
  <title id="title">Astera案内AI</title>
  <desc id="desc">透明背景の案内AIロボットアイコン</desc>
  <g fill="#111111">
    <rect x="24" y="66" width="18" height="48" rx="9"/>
    <rect x="138" y="66" width="18" height="48" rx="9"/>
    <path d="M38 76c0-35 22-56 52-56s52 21 52 56v25c0 23-18 41-41 41H79c-23 0-41-18-41-41V76z"/>
    <path d="M60 132h60l8 24H52z"/>
  </g>
  <path fill="#ffffff" d="M48 77c0-29 18-46 42-46s42 17 42 46v19c0 18-14 32-32 32H80c-18 0-32-14-32-32V77z"/>
  <rect x="55" y="61" width="70" height="45" rx="22.5" fill="#111111"/>
  <circle cx="74" cy="83.5" r="8" fill="#ffffff"/>
  <circle cx="106" cy="83.5" r="8" fill="#ffffff"/>
  <rect x="77" y="125" width="26" height="17" rx="8.5" fill="#ffffff"/>
</svg>
